<svg aria-hidden="true" style="position: absolute; width: 0; height: 0; overflow: hidden;" version="1.1" xmlns="http://www.w3.org/2000/svg" xmlns:xlink="http://www.w3.org/1999/xlink">
    <defs>
        <symbol id="icon-logo" viewBox="0 0 32 32">
            <path d="M18.679 15.976c0-1.434-1.199-2.597-2.679-2.597s-2.679 1.163-2.679 2.597c0 1.435 1.2 2.597 2.679 2.597s2.679-1.163 2.679-2.598z"></path>
            <path d="M24.7 11.154c0.566-2.229 1.277-6.362-1.23-7.764-2.495-1.395-5.742 1.278-7.457 2.883-1.71-1.589-5.048-4.251-7.552-2.845-2.494 1.4-1.725 5.465-1.147 7.708-2.327 0.641-6.315 2.021-6.315 4.84 0 2.811 3.984 4.313 6.297 4.953-0.58 2.255-1.311 6.262 1.186 7.659 2.514 1.405 5.842-1.193 7.572-2.816 1.726 1.614 4.941 4.23 7.437 2.829 2.503-1.405 1.851-5.483 1.273-7.739 2.242-0.642 6.235-2.11 6.235-4.887 0-2.792-4.010-4.184-6.3-4.822zM24.416 19.667c-0.38-1.165-0.892-2.405-1.519-3.685 0.598-1.25 1.091-2.473 1.46-3.631 1.679 0.472 5.361 1.55 5.361 3.625 0 2.094-3.534 3.183-5.302 3.691zM22.85 27.526c-1.862 1.045-4.628-1.456-5.902-2.645 0.845-0.896 1.69-1.939 2.515-3.096 1.45-0.125 2.82-0.329 4.063-0.607 0.407 1.596 1.195 5.299-0.676 6.348zM9.124 27.511c-1.862-1.041-1.011-4.617-0.584-6.278 1.229 0.264 2.589 0.453 4.043 0.567 0.83 1.132 1.699 2.173 2.575 3.085-1.082 1.015-4.163 3.671-6.034 2.625zM2.281 15.976c0-2.102 3.661-3.173 5.378-3.643 0.375 1.184 0.868 2.422 1.462 3.674-0.602 1.27-1.101 2.528-1.48 3.726-1.637-0.454-5.359-1.653-5.359-3.756zM9.104 4.504c1.87-1.049 4.771 1.506 6.012 2.657-0.871 0.907-1.733 1.94-2.556 3.066-1.411 0.127-2.762 0.33-4.003 0.603-0.466-1.809-1.321-5.278 0.547-6.326zM20.379 11.577c0.957 0.117 1.874 0.273 2.735 0.463-0.259 0.803-0.581 1.643-0.96 2.505-0.55-1.012-1.141-2.004-1.775-2.968zM16.014 8.048c0.591 0.621 1.183 1.314 1.765 2.066-1.181-0.054-2.364-0.054-3.546-0.001 0.583-0.745 1.18-1.438 1.78-2.066zM9.857 14.544c-0.373-0.858-0.693-1.702-0.953-2.517 0.856-0.186 1.769-0.338 2.72-0.453-0.636 0.962-1.226 1.954-1.767 2.97zM11.65 20.466c-0.982-0.106-1.909-0.25-2.765-0.431 0.265-0.829 0.591-1.691 0.972-2.568 0.548 1.026 1.147 2.027 1.792 2.999zM16.050 23.991c-0.607-0.636-1.213-1.338-1.805-2.094 1.188 0.045 2.378 0.045 3.566-0.006-0.584 0.77-1.174 1.474-1.761 2.101zM22.167 17.422c0.401 0.886 0.739 1.744 1.008 2.559-0.87 0.192-1.809 0.348-2.799 0.463 0.639-0.983 1.239-1.99 1.791-3.021zM18.747 20.594c-1.817 0.126-3.646 0.125-5.463 0.010-1.033-1.463-1.952-3.001-2.746-4.599 0.79-1.594 1.703-3.129 2.731-4.59 1.819-0.133 3.649-0.134 5.469 0.001 1.019 1.46 1.931 2.992 2.739 4.572-0.799 1.593-1.716 3.132-2.728 4.606zM22.83 4.467c1.87 1.046 1.038 4.761 0.629 6.376-1.245-0.278-2.596-0.486-4.011-0.614-0.824-1.138-1.678-2.173-2.536-3.069 1.257-1.175 4.066-3.729 5.918-2.693z"></path>
        </symbol>
    </defs>
</svg>